<svg width="18" height="18" viewBox="0 0 100 100" fill="none" xmlns="http://www.w3.org/2000/svg" stroke="#2ca099" stroke-width="1.0">
<path d="M62.2365 42.4398L47.3963 57.2924L40.8083 50.6963C40.3584 50.2506 39.7614 50.0012 39.1233 50.0012C38.4853 50.0012 37.8883 50.2506 37.4384 50.7005C36.5143 51.6288 36.5143 53.1418 37.4384 54.0743L45.6948 62.3634C46.5946 63.2672 48.1649 63.2672 49.0603 62.3634L65.6059 45.8178C66.53 44.8856 66.53 43.3723 65.6059 42.4401C64.7063 41.5361 63.136 41.5361 62.2365 42.4398Z" stroke-width="1.0" fill="#2ca099"/>
<path fill-rule="evenodd" clip-rule="evenodd" d="M50.5 78.64C66.0413 78.64 78.64 66.0413 78.64 50.5C78.64 34.9587 66.0413 22.36 50.5 22.36C34.9587 22.36 22.36 34.9587 22.36 50.5C22.36 66.0413 34.9587 78.64 50.5 78.64ZM50.5 84C69.0015 84 84 69.0015 84 50.5C84 31.9985 69.0015 17 50.5 17C31.9985 17 17 31.9985 17 50.5C17 69.0015 31.9985 84 50.5 84Z" stroke-width="1.0" fill="#2ca099"/>
</svg>
