<svg width="100" height="100" viewBox="0 0 100 100" fill="none" xmlns="http://www.w3.org/2000/svg">
<path d="M53.9186 51.6939L60.5024 45.1059C61.4307 44.1737 61.4307 42.6604 60.5024 41.7282C59.6026 40.8368 58.0364 40.8368 57.1327 41.7324L50.5489 48.3245L43.961 41.7284C43.0654 40.837 41.4909 40.8328 40.5955 41.7326C39.6633 42.661 39.6633 44.1739 40.5955 45.1064L47.1793 51.6944L40.5955 58.2824C39.6633 59.2107 39.6633 60.7237 40.5955 61.6562C41.4911 62.556 43.0656 62.556 43.961 61.6562L50.5489 55.0641L57.1327 61.6562C58.0325 62.556 59.6028 62.556 60.5024 61.6562C60.9523 61.2024 61.1975 60.6052 61.1975 59.9674C61.1975 59.3335 60.952 58.7323 60.5024 58.2866L53.9186 51.6939Z" fill="#E94F37"/>
<path fill-rule="evenodd" clip-rule="evenodd" d="M50.5 78.64C66.0413 78.64 78.64 66.0413 78.64 50.5C78.64 34.9587 66.0413 22.36 50.5 22.36C34.9587 22.36 22.36 34.9587 22.36 50.5C22.36 66.0413 34.9587 78.64 50.5 78.64ZM50.5 84C69.0015 84 84 69.0015 84 50.5C84 31.9985 69.0015 17 50.5 17C31.9985 17 17 31.9985 17 50.5C17 69.0015 31.9985 84 50.5 84Z" fill="#E94F37"/>
</svg>
